#N canvas 0 84 1366 658 10;
#X obj 88 -352 bng 15 250 50 0 empty empty empty 17 7 0 10 -262144
-1 -1;
#X obj 88 -330 openpanel;
#X msg 88 -306 read -resize \$1 tableau;
#N canvas 0 0 450 300 (subpatch) 0;
#X array tableau 308112 float 2;
#X coords 0 1 308112 -1 200 140 1;
#X restore 970 14 graph;
#X obj 83 82 soundfiler;
#X obj 83 106 expr 44100 / $f1;
#X floatatom 83 130 5 0 0 0 - - -;
#X obj 83 153 phasor~;
#X obj 83 177 *~;
#X obj 83 201 tabread4~ tableau;
#X obj 83 307 *~;
#X obj 83 331 dac~;
#X floatatom 134 222 5 0 0 0 - - -;
#X msg 134 242 \$1 20;
#X obj 134 263 line~;
#X obj 189 182 unsig~ 50;
#X obj 510 200 hsl 179 30 0 1 0 0 empty empty empty -2 -8 0 10 -262144
-1 -1 4505 1;
#X obj 83 331 hip~ 5;
#X obj 208 -159 hradio 15 1 0 8 empty empty empty 0 -8 0 10 -262144
-1 -1 2;
#X floatatom 210 -133 5 0 0 0 - - -;
#X obj 203 -65 f 0;
#X obj 206 -106 route 0 1 2 3 4 5 6 7;
#X obj 233 -65 f 0.125;
#X obj 288 -65 f 0.25;
#X obj 342 -65 f 0.375;
#X obj 406 -65 f 0.5;
#X obj 448 -65 f 0.625;
#X obj 510 -65 f 0.75;
#X obj 561 -65 f 0.875;
#X obj 380 -361 key;
#X floatatom 376 -335 5 0 0 0 - - -;
#X obj 288 311 spigot~;
#X obj 326 224 sel;
#X obj 211 -271 sel 97;
#X floatatom 215 231 5 0 0 0 - - -;
#X floatatom 217 322 5 0 0 0 - - -;
#X obj 215 251 * 8;
#X obj 269 -271 sel 122;
#X obj 331 -269 sel 101;
#X obj 389 -269 sel 114;
#X obj 442 -269 sel 116;
#X obj 504 -270 sel 121;
#X obj 568 -270 sel 117;
#X obj 631 -270 sel 105;
#X floatatom 212 -188 5 0 0 0 - - -;
#X obj 215 272 int;
#X msg 242 -221 1;
#X msg 212 -221 0;
#X msg 276 -221 2;
#X msg 306 -221 3;
#X msg 357 -221 4;
#X msg 387 -221 5;
#X msg 421 -221 6;
#X msg 451 -221 7;
#X connect 0 0 1 0;
#X connect 1 0 2 0;
#X connect 2 0 4 0;
#X connect 4 0 5 0;
#X connect 4 0 8 1;
#X connect 5 0 6 0;
#X connect 6 0 7 0;
#X connect 7 0 8 0;
#X connect 7 0 15 0;
#X connect 8 0 9 0;
#X connect 9 0 10 0;
#X connect 10 0 17 0;
#X connect 12 0 13 0;
#X connect 13 0 14 0;
#X connect 14 0 10 1;
#X connect 15 0 16 0;
#X connect 15 0 34 0;
#X connect 17 0 11 0;
#X connect 17 0 11 1;
#X connect 18 0 19 0;
#X connect 19 0 21 0;
#X connect 20 0 7 1;
#X connect 21 0 20 0;
#X connect 21 1 22 0;
#X connect 21 2 23 0;
#X connect 21 3 24 0;
#X connect 21 4 25 0;
#X connect 21 5 26 0;
#X connect 21 6 27 0;
#X connect 21 7 28 0;
#X connect 22 0 7 1;
#X connect 23 0 7 1;
#X connect 24 0 7 1;
#X connect 25 0 7 1;
#X connect 26 0 7 1;
#X connect 27 0 7 1;
#X connect 28 0 7 1;
#X connect 29 0 30 0;
#X connect 30 0 33 0;
#X connect 30 0 37 0;
#X connect 30 0 38 0;
#X connect 30 0 39 0;
#X connect 30 0 40 0;
#X connect 30 0 41 0;
#X connect 30 0 42 0;
#X connect 30 0 43 0;
#X connect 33 0 47 0;
#X connect 34 0 36 0;
#X connect 36 0 45 0;
#X connect 37 0 46 0;
#X connect 38 0 48 0;
#X connect 39 0 49 0;
#X connect 40 0 50 0;
#X connect 41 0 51 0;
#X connect 42 0 52 0;
#X connect 43 0 53 0;
#X connect 44 0 18 0;
#X connect 45 0 35 0;
#X connect 46 0 44 0;
#X connect 47 0 44 0;
#X connect 48 0 44 0;
#X connect 49 0 44 0;
#X connect 50 0 44 0;
#X connect 51 0 44 0;
#X connect 52 0 44 0;
#X connect 53 0 44 0;
